<svg xmlns="http://www.w3.org/2000/svg" width="60" height="60" viewBox="0 0 60 60"><rect width="100%" height="100%" fill="#333333"/><path fill="#FFFFFF" d="M17.84 29.98h3.36v4.1q-.77.57-1.65.83-.87.26-1.86.26-1.24 0-2.24-.38-1.01-.39-1.72-1.07-.71-.69-1.09-1.64-.39-.95-.39-2.08 0-1.14.37-2.09.37-.96 1.05-1.64.69-.69 1.66-1.07.97-.37 2.18-.37.62 0 1.16.09.53.1.99.27t.84.42q.37.24.69.54l-.54.85q-.13.21-.33.25-.2.05-.44-.1-.23-.13-.46-.27-.23-.13-.52-.23-.28-.1-.63-.16-.36-.06-.82-.06-.75 0-1.35.25-.61.25-1.04.72-.42.47-.65 1.13-.24.66-.24 1.47 0 .87.25 1.55t.7 1.15q.46.48 1.09.73.64.24 1.42.24.56 0 1-.12.45-.11.87-.32V31.4h-1.28q-.18 0-.28-.1t-.1-.25zm8.7 3.23v-1.22q-.75.04-1.26.13-.51.1-.82.25-.31.14-.44.34-.14.19-.14.42 0 .46.27.66.27.19.71.19.53 0 .92-.19t.76-.58m-3.66-3.78-.3-.55q1.23-1.14 2.98-1.14.63 0 1.12.21.5.21.84.58.35.36.53.87.17.51.17 1.12v4.54h-.78q-.24 0-.38-.07-.13-.08-.21-.3l-.15-.52q-.27.25-.53.43-.26.19-.54.31-.28.13-.6.2-.32.06-.7.06-.46 0-.84-.12-.39-.12-.67-.37-.28-.24-.43-.61-.16-.36-.16-.84 0-.28.09-.55t.3-.51q.21-.25.54-.46.33-.22.8-.38.48-.16 1.12-.26t1.46-.13v-.42q0-.72-.31-1.06-.31-.35-.89-.35-.42 0-.7.1-.27.1-.48.22t-.38.22q-.18.1-.39.1-.18 0-.3-.1-.13-.09-.21-.22m8.7 5.63h-1.73v-7.18h1.06q.33 0 .44.31l.11.54q.19-.21.39-.39.21-.18.44-.3.24-.13.51-.2t.59-.07q.68 0 1.12.36.43.37.65.98.17-.36.42-.61.25-.26.55-.42.31-.16.64-.24.34-.07.69-.07.59 0 1.05.18.47.18.78.53.32.35.48.85.17.51.17 1.16v4.57h-1.73v-4.57q0-.69-.3-1.03-.31-.35-.89-.35-.26 0-.49.09t-.4.26q-.17.18-.27.43-.1.26-.1.6v4.57h-1.73v-4.57q0-.72-.29-1.05t-.85-.33q-.38 0-.71.19-.32.18-.6.5zm11.36-4.42h3.26q0-.33-.09-.63-.1-.3-.29-.52-.19-.23-.48-.36-.29-.12-.67-.12-.75 0-1.18.42-.43.43-.55 1.21m4.41 1.05H42.9q.04.55.2.95.15.4.4.67.26.26.6.39.35.13.77.13t.72-.1q.31-.1.54-.22.22-.12.4-.21.17-.1.33-.1.22 0 .32.16l.5.63q-.29.34-.65.56-.35.23-.74.37-.39.13-.79.19-.41.05-.78.05-.75 0-1.4-.24-.64-.25-1.12-.74-.47-.48-.75-1.2-.27-.72-.27-1.67 0-.73.24-1.38t.68-1.12q.45-.48 1.09-.76t1.44-.28q.68 0 1.26.21.57.22.98.64.41.41.65 1.02.23.6.23 1.38 0 .39-.08.53t-.32.14"/></svg>