<svg width="30" height="30" viewBox="0 0 30 30" fill="none" xmlns="http://www.w3.org/2000/svg">
<g clip-path="url(#clip0_917_2900)">
<path d="M15.1553 4.73795C15.1553 4.73795 17.5729 -0.270921 23.3472 0.312978C23.4746 0.327141 23.5975 0.367824 23.7082 0.432406C23.8189 0.496989 23.9149 0.58404 23.9899 0.687954C24.6246 1.53363 24.9505 2.57125 24.9132 3.62798C24.8041 5.55774 17.6787 7.04422 17.6787 7.04422L16.1686 6.74426L15.1553 4.73795Z" fill="#F6C863"/>
<path d="M21.1795 5.50708C19.7055 6.05802 18.1451 6.34159 16.5715 6.34446C18.6733 4.44464 21.3496 3.30151 24.1754 3.09661C24.5084 3.06924 24.6329 3.45025 24.4038 3.69359C23.8874 4.24032 22.5749 4.97458 21.1795 5.50708Z" fill="#EAB54E"/>
<path d="M15.1541 4.73795C15.1541 4.73795 12.7364 -0.270921 6.96218 0.312978C6.83481 0.327141 6.71181 0.367824 6.60111 0.432406C6.49041 0.496989 6.39446 0.58404 6.31945 0.687954C5.68471 1.53363 5.35887 2.57125 5.3962 3.62798C5.50535 5.55774 12.6307 7.04422 12.6307 7.04422L14.1408 6.74426L15.1541 4.73795Z" fill="#F6C863"/>
<path d="M9.12964 5.50708C10.6036 6.05802 12.1641 6.34159 13.7376 6.34446C12.5621 5.29877 11.2101 4.47038 9.74467 3.89796C8.58392 3.46504 7.3687 3.19535 6.13379 3.09661C5.80082 3.06924 5.67629 3.45025 5.90541 3.69359C6.41994 4.24032 7.73614 4.97458 9.12964 5.50708Z" fill="#EAB54E"/>
<path d="M15.0012 8.22174C16.002 8.22174 16.8132 7.41048 16.8132 6.40973C16.8132 5.40898 16.002 4.59772 15.0012 4.59772C14.0005 4.59772 13.1892 5.40898 13.1892 6.40973C13.1892 7.41048 14.0005 8.22174 15.0012 8.22174Z" fill="#EAB54E"/>
<path d="M0.371621 6.40936H29.6283C29.7269 6.40938 29.8214 6.44854 29.8911 6.51823C29.9608 6.58792 29.9999 6.68243 29.9999 6.78098V11.6132C29.9999 11.7118 29.9608 11.8063 29.8911 11.876C29.8214 11.9456 29.7269 11.9848 29.6283 11.9848H0.371621C0.273066 11.9848 0.178554 11.9456 0.108865 11.876C0.0391763 11.8063 1.7788e-05 11.7118 0 11.6132L0 6.78098C1.7788e-05 6.68243 0.0391763 6.58792 0.108865 6.51823C0.178554 6.44854 0.273066 6.40938 0.371621 6.40936Z" fill="#EF5261"/>
<path d="M28.5218 10.9626V29.3627C28.5215 29.4612 28.4823 29.5555 28.4126 29.6251C28.343 29.6948 28.2487 29.734 28.1502 29.7343H1.85185C1.75338 29.734 1.65903 29.6948 1.5894 29.6251C1.51977 29.5555 1.48053 29.4612 1.48022 29.3627V10.9626H28.5218Z" fill="#EF5261"/>
<path d="M1.48022 11.9849H28.5222V13.2857H1.48022V11.9849Z" fill="#DA364C"/>
<path d="M12.8257 6.40936H17.176V29.7339H12.8257V6.40936Z" fill="#F6C863"/>
<path d="M12.8245 11.9849H17.1771V13.2857H12.8245V11.9849Z" fill="#EAB54E"/>
</g>
<defs>
<clipPath id="clip0_917_2900">
<rect width="30" height="30" fill="white"/>
</clipPath>
</defs>
</svg>
