<svg width="38" height="38" viewBox="0 0 38 38" fill="none" xmlns="http://www.w3.org/2000/svg">
<path d="M21.3503 14.801L21.9048 18.0325L19.0031 16.5068L16.1014 18.0325L16.6558 14.801L14.3082 12.5134L17.5522 12.0414L19.0031 9.10211L20.4539 12.0414L23.698 12.5134L21.3503 14.801ZM24.2596 29.5001H13.7883C17.6172 27.5857 16.8633 23.3985 16.9389 23.8704L17.1601 23.9107C17.4092 23.9922 17.663 24.0589 17.9201 24.1102C18.2721 24.181 18.6289 24.2257 18.9875 24.244L19.0054 24.2474H19.0426L19.0578 24.2447C19.417 24.2265 19.7744 24.182 20.1271 24.1117C20.4476 24.0475 20.7629 23.9598 21.0707 23.8495C21.052 24.1011 20.7651 27.7525 24.2596 29.5001Z" fill="url(#paint0_linear_917_2914)"/>
<path d="M25.0291 30.4855V33.2702H13.0188V30.4855C13.0188 30.3583 13.0439 30.2324 13.0925 30.1149C13.1412 29.9974 13.2126 29.8906 13.3025 29.8007C13.3925 29.7108 13.4993 29.6395 13.6168 29.5909C13.7343 29.5422 13.8602 29.5172 13.9874 29.5173H24.0605C24.1876 29.5172 24.3136 29.5422 24.4311 29.5909C24.5486 29.6395 24.6554 29.7108 24.7454 29.8007C24.8353 29.8906 24.9067 29.9974 24.9553 30.1149C25.004 30.2324 25.0291 30.3583 25.0291 30.4855Z" fill="#FFC400"/>
<path d="M25.71 19.6285C25.4865 19.6278 25.2703 19.5483 25.0996 19.404C24.9289 19.2596 24.8145 19.0597 24.7767 18.8394C24.7388 18.6191 24.7799 18.3925 24.8926 18.1994C25.0054 18.0064 25.1826 17.8593 25.3931 17.784C29.9728 16.1637 30.8309 14.38 31.4765 12.217C31.6665 11.5752 31.6768 11.0702 31.5012 10.7574C31.4164 10.6104 31.2855 10.4955 31.1288 10.4302L26.7786 10.4177C26.5266 10.4174 26.2851 10.3169 26.1072 10.1385C25.9293 9.96011 25.8295 9.71833 25.8299 9.46637C25.8303 9.21442 25.9307 8.97292 26.1091 8.79501C26.2875 8.6171 26.5293 8.51735 26.7812 8.5177H26.7839L31.2781 8.53062C31.342 8.53084 31.4056 8.53746 31.4681 8.55038C31.8106 8.63381 32.133 8.78421 32.417 8.99292C32.701 9.20163 32.9408 9.4645 33.1227 9.76638C33.5962 10.5583 33.6547 11.5664 33.2982 12.7623C32.9243 14.0163 32.417 15.3433 31.2462 16.5623C30.0914 17.7673 28.4342 18.7253 26.0262 19.5768C25.9244 19.6118 25.8176 19.6292 25.71 19.6285ZM12.337 19.646C12.2296 19.6461 12.123 19.6278 12.0216 19.592C9.59649 18.7378 7.92563 17.7779 6.76397 16.5707C5.58597 15.3482 5.07829 14.0163 4.70285 12.7589C4.34565 11.563 4.40493 10.5549 4.87841 9.76296C5.06026 9.46108 5.30009 9.19821 5.58406 8.9895C5.86803 8.78079 6.19053 8.63039 6.53293 8.54696C6.59544 8.53404 6.65909 8.52742 6.72293 8.5272L11.2586 8.51428H11.2616C11.5136 8.51393 11.7554 8.61368 11.9338 8.79159C12.1122 8.9695 12.2126 9.211 12.213 9.46295C12.2133 9.71491 12.1136 9.95669 11.9357 10.1351C11.7578 10.3135 11.5163 10.4139 11.2643 10.4143L6.87227 10.4268C6.71558 10.492 6.58471 10.607 6.49987 10.754C6.32431 11.0667 6.33305 11.5718 6.52457 12.2136C7.17057 14.3834 8.03469 16.172 12.6536 17.7965C12.8653 17.8708 13.0439 18.0177 13.1577 18.211C13.2716 18.4044 13.3133 18.6318 13.2755 18.8529C13.2377 19.0741 13.1229 19.2747 12.9513 19.4194C12.7798 19.564 12.5626 19.6432 12.3382 19.643L12.337 19.646Z" fill="#F9A825"/>
<path d="M28.4084 6.60934C28.3985 5.98272 28.3879 5.35534 28.3879 4.72986H9.65959C9.65959 5.35572 9.64895 5.98386 9.63945 6.60934C9.60639 8.69934 9.58017 10.7867 9.97499 12.8463C10.1652 13.8566 10.4126 14.8553 10.716 15.8376C11.0998 17.0681 11.5862 18.2651 12.2067 19.3891C13.3167 21.4031 14.9564 23.1925 17.16 23.9111L18.9874 24.244L19.0254 24.2463H19.0593L21.0733 23.8366V23.8503C23.183 23.0918 24.7623 21.3446 25.84 19.3891C26.9572 17.366 27.6397 15.1077 28.0729 12.8463C28.4673 10.7867 28.4411 8.69934 28.4084 6.60934ZM21.9047 18.0321L19.003 16.5068L16.1013 18.0321L16.6558 14.8021L14.3081 12.5142L17.5522 12.043L19.003 9.10328L20.4539 12.043L23.6979 12.5142L21.3503 14.801L21.9047 18.0321Z" fill="#FFC400"/>
<defs>
<linearGradient id="paint0_linear_917_2914" x1="19.024" y1="9.10211" x2="19.024" y2="29.5001" gradientUnits="userSpaceOnUse">
<stop stop-color="#F9A825"/>
<stop offset="1" stop-color="#EF5261"/>
</linearGradient>
</defs>
</svg>
