<svg width="86" height="126" viewBox="0 0 86 126" fill="none" xmlns="http://www.w3.org/2000/svg">
<rect x="0.05" y="0.05" width="85.9" height="21.9" rx="1.95" fill="#565656" fill-opacity="0.5"/>
<rect x="0.05" y="0.05" width="85.9" height="21.9" rx="1.95" stroke="white" stroke-width="0.1"/>
<rect x="0.05" y="26.05" width="85.9" height="21.9" rx="1.95" fill="#565656" fill-opacity="0.5"/>
<rect x="0.05" y="26.05" width="85.9" height="21.9" rx="1.95" stroke="white" stroke-width="0.1"/>
<rect x="0.05" y="52.05" width="85.9" height="21.9" rx="1.95" fill="#565656" fill-opacity="0.5"/>
<rect x="0.05" y="52.05" width="85.9" height="21.9" rx="1.95" stroke="white" stroke-width="0.1"/>
<rect x="0.05" y="78.05" width="39.9" height="21.9" rx="1.95" fill="#565656" fill-opacity="0.5"/>
<rect x="0.05" y="78.05" width="39.9" height="21.9" rx="1.95" stroke="white" stroke-width="0.1"/>
<rect x="46.05" y="78.05" width="39.9" height="21.9" rx="1.95" fill="#565656" fill-opacity="0.5"/>
<rect x="46.05" y="78.05" width="39.9" height="21.9" rx="1.95" stroke="white" stroke-width="0.1"/>
<rect x="0.05" y="104.05" width="39.9" height="21.9" rx="1.95" fill="#565656" fill-opacity="0.5"/>
<rect x="0.05" y="104.05" width="39.9" height="21.9" rx="1.95" stroke="white" stroke-width="0.1"/>
<rect x="46.05" y="104.05" width="39.9" height="21.9" rx="1.95" fill="#565656" fill-opacity="0.5"/>
<rect x="46.05" y="104.05" width="39.9" height="21.9" rx="1.95" stroke="white" stroke-width="0.1"/>
</svg>
