<svg width="24" height="22" viewBox="0 0 24 22" fill="none" xmlns="http://www.w3.org/2000/svg">
<g filter="url(#filter0_d_914_1124)">
<path d="M5.2703 5.18934C5.33285 4.50587 5.90604 3.98275 6.59236 3.98275H16.9098C17.6908 3.98275 18.303 4.65361 18.2318 5.43134L17.3292 15.2934C17.2667 15.9769 16.6935 16.5 16.0072 16.5H5.68975C4.90876 16.5 4.29651 15.8291 4.36769 15.0514L5.2703 5.18934Z" fill="url(#paint0_linear_914_1124)" fill-opacity="0.64" shape-rendering="crispEdges"/>
<path d="M6.59262 4.03006H16.9097C17.6626 4.03006 18.2534 4.67685 18.185 5.42663L17.2822 15.2894C17.2218 15.9483 16.6686 16.4523 16.0069 16.4523H5.68983C4.93676 16.4523 4.3459 15.8057 4.41448 15.0558L5.31728 5.19403C5.3776 4.53498 5.93081 4.03006 6.59262 4.03006Z" stroke="#89898A" stroke-opacity="0.5" stroke-width="0.0939597" shape-rendering="crispEdges"/>
</g>
<defs>
<filter id="filter0_d_914_1124" x="-4.15071e-06" y="-4.45148e-06" width="23.3582" height="22" filterUnits="userSpaceOnUse" color-interpolation-filters="sRGB">
<feFlood flood-opacity="0" result="BackgroundImageFix"/>
<feColorMatrix in="SourceAlpha" type="matrix" values="0 0 0 0 0 0 0 0 0 0 0 0 0 0 0 0 0 0 127 0" result="hardAlpha"/>
<feOffset dx="0.375839" dy="0.751678"/>
<feGaussianBlur stdDeviation="2.34899"/>
<feComposite in2="hardAlpha" operator="out"/>
<feColorMatrix type="matrix" values="0 0 0 0 0.0705882 0 0 0 0 0.972549 0 0 0 0 0.356863 0 0 0 0.73 0"/>
<feBlend mode="normal" in2="BackgroundImageFix" result="effect1_dropShadow_914_1124"/>
<feBlend mode="normal" in="SourceGraphic" in2="effect1_dropShadow_914_1124" result="shape"/>
</filter>
<linearGradient id="paint0_linear_914_1124" x1="11.2998" y1="3.98275" x2="11.2998" y2="16.5" gradientUnits="userSpaceOnUse">
<stop offset="1" stop-color="#12F85B"/>
</linearGradient>
</defs>
</svg>
