<svg width="39" height="38" viewBox="0 0 39 38" fill="none" xmlns="http://www.w3.org/2000/svg">
<path d="M21.8503 14.801L22.4048 18.0325L19.5031 16.5068L16.6014 18.0325L17.1558 14.801L14.8082 12.5134L18.0522 12.0414L19.5031 9.10211L20.9539 12.0414L24.198 12.5134L21.8503 14.801ZM24.7596 29.5001H14.2883C18.1172 27.5857 17.3633 23.3985 17.4389 23.8704L17.6601 23.9107C17.9092 23.9922 18.163 24.0589 18.4201 24.1102C18.7721 24.181 19.1289 24.2257 19.4875 24.244L19.5054 24.2474H19.5426L19.5578 24.2447C19.917 24.2265 20.2744 24.182 20.6271 24.1117C20.9476 24.0475 21.2629 23.9598 21.5707 23.8495C21.552 24.1011 21.2651 27.7525 24.7596 29.5001Z" fill="url(#paint0_linear_914_1070)"/>
<path d="M25.5291 30.4855V33.2702H13.5188V30.4855C13.5188 30.3583 13.5439 30.2324 13.5925 30.1149C13.6412 29.9974 13.7126 29.8906 13.8025 29.8007C13.8925 29.7108 13.9993 29.6395 14.1168 29.5909C14.2343 29.5422 14.3602 29.5172 14.4874 29.5173H24.5605C24.6876 29.5172 24.8136 29.5422 24.9311 29.5909C25.0486 29.6395 25.1554 29.7108 25.2454 29.8007C25.3353 29.8906 25.4067 29.9974 25.4553 30.1149C25.504 30.2324 25.5291 30.3583 25.5291 30.4855Z" fill="#FFC400"/>
<path d="M26.21 19.6285C25.9865 19.6278 25.7703 19.5483 25.5996 19.404C25.4289 19.2596 25.3145 19.0597 25.2767 18.8394C25.2388 18.6191 25.2799 18.3925 25.3926 18.1994C25.5054 18.0064 25.6826 17.8593 25.8931 17.784C30.4728 16.1637 31.3309 14.38 31.9765 12.217C32.1665 11.5752 32.1768 11.0702 32.0012 10.7574C31.9164 10.6104 31.7855 10.4955 31.6288 10.4302L27.2786 10.4177C27.0266 10.4174 26.7851 10.3169 26.6072 10.1385C26.4293 9.96011 26.3295 9.71833 26.3299 9.46637C26.3303 9.21442 26.4307 8.97292 26.6091 8.79501C26.7875 8.6171 27.0293 8.51735 27.2812 8.5177H27.2839L31.7781 8.53062C31.842 8.53084 31.9056 8.53746 31.9681 8.55038C32.3106 8.63381 32.633 8.78421 32.917 8.99292C33.201 9.20163 33.4408 9.4645 33.6227 9.76638C34.0962 10.5583 34.1547 11.5664 33.7982 12.7623C33.4243 14.0163 32.917 15.3433 31.7462 16.5623C30.5914 17.7673 28.9342 18.7253 26.5262 19.5768C26.4244 19.6118 26.3176 19.6292 26.21 19.6285ZM12.837 19.646C12.7296 19.6461 12.623 19.6278 12.5216 19.592C10.0965 18.7378 8.42563 17.7779 7.26397 16.5707C6.08597 15.3482 5.57829 14.0163 5.20285 12.7589C4.84565 11.563 4.90493 10.5549 5.37841 9.76296C5.56026 9.46108 5.80009 9.19821 6.08406 8.9895C6.36803 8.78079 6.69053 8.63039 7.03293 8.54696C7.09544 8.53404 7.15909 8.52742 7.22293 8.5272L11.7586 8.51428H11.7616C12.0136 8.51393 12.2554 8.61368 12.4338 8.79159C12.6122 8.9695 12.7126 9.211 12.713 9.46295C12.7133 9.71491 12.6136 9.95669 12.4357 10.1351C12.2578 10.3135 12.0163 10.4139 11.7643 10.4143L7.37227 10.4268C7.21558 10.492 7.08471 10.607 6.99987 10.754C6.82431 11.0667 6.83305 11.5718 7.02457 12.2136C7.67057 14.3834 8.53469 16.172 13.1536 17.7965C13.3653 17.8708 13.5439 18.0177 13.6577 18.211C13.7716 18.4044 13.8133 18.6318 13.7755 18.8529C13.7377 19.0741 13.6229 19.2747 13.4513 19.4194C13.2798 19.564 13.0626 19.6432 12.8382 19.643L12.837 19.646Z" fill="#F9A825"/>
<path d="M28.9084 6.60934C28.8985 5.98272 28.8879 5.35534 28.8879 4.72986H10.1596C10.1596 5.35572 10.1489 5.98386 10.1394 6.60934C10.1064 8.69934 10.0802 10.7867 10.475 12.8463C10.6652 13.8566 10.9126 14.8553 11.216 15.8376C11.5998 17.0681 12.0862 18.2651 12.7067 19.3891C13.8167 21.4031 15.4564 23.1925 17.66 23.9111L19.4874 24.244L19.5254 24.2463H19.5593L21.5733 23.8366V23.8503C23.683 23.0918 25.2623 21.3446 26.34 19.3891C27.4572 17.366 28.1397 15.1077 28.5729 12.8463C28.9673 10.7867 28.9411 8.69934 28.9084 6.60934ZM22.4047 18.0321L19.503 16.5068L16.6013 18.0321L17.1558 14.8021L14.8081 12.5142L18.0522 12.043L19.503 9.10328L20.9539 12.043L24.1979 12.5142L21.8503 14.801L22.4047 18.0321Z" fill="#FFC400"/>
<defs>
<linearGradient id="paint0_linear_914_1070" x1="19.524" y1="9.10211" x2="19.524" y2="29.5001" gradientUnits="userSpaceOnUse">
<stop stop-color="#F9A825"/>
<stop offset="1" stop-color="#EF5261"/>
</linearGradient>
</defs>
</svg>
