<svg width="14" height="10" viewBox="0 0 14 10" fill="none" xmlns="http://www.w3.org/2000/svg">
<path d="M12.7483 1.63997C10.8992 -1.39807 8.11357 0.715532 8.11357 0.715532C7.93291 0.85207 7.59979 0.964329 7.37344 0.964851L6.62731 0.965373C6.40096 0.965634 6.06784 0.853375 5.88744 0.716837C5.88744 0.716837 3.10159 -1.39729 1.25219 1.64075C-0.596686 4.67775 0.1484 7.98521 0.1484 7.98521C0.278934 8.79504 0.709173 9.33545 1.52109 9.26758C2.33066 9.19996 4.08791 7.08662 4.08791 7.08662C4.23306 6.91249 4.5372 6.77021 4.76303 6.77021L9.23616 6.76942C9.46224 6.76942 9.76612 6.9117 9.91102 7.08584C9.91102 7.08584 11.6685 9.19918 12.4794 9.26679C13.2903 9.33467 13.7216 8.79374 13.8513 7.98443C13.851 7.98443 14.5974 4.67749 12.7483 1.63997ZM5.3191 4.1128H4.35994V5.03724C4.35994 5.03724 4.15683 5.19232 3.8425 5.1884C3.5287 5.1837 3.38668 5.01923 3.38668 5.01923V4.11306H2.48078C2.48078 4.11306 2.36773 3.99715 2.33745 3.69196C2.30769 3.38677 2.4625 3.14006 2.4625 3.14006H3.42192V2.1809C3.42192 2.1809 3.61929 2.07517 3.90307 2.08326C4.07321 2.08841 4.24056 2.12775 4.39518 2.19892L4.39127 3.1398H5.29717C5.29717 3.1398 5.45538 3.34291 5.46843 3.58832C5.48148 3.83398 5.3191 4.1128 5.3191 4.1128ZM9.71861 5.16647C9.61892 5.16654 9.52019 5.14694 9.42808 5.10881C9.33597 5.07068 9.25228 5.01475 9.18182 4.94423C9.11135 4.87371 9.05548 4.78999 9.01741 4.69785C8.97933 4.60572 8.95981 4.50698 8.95995 4.40729C8.95974 4.30757 8.97922 4.2088 9.01727 4.11663C9.05531 4.02447 9.11118 3.94072 9.18166 3.87019C9.25214 3.79965 9.33586 3.74373 9.428 3.70562C9.52014 3.66751 9.6189 3.64796 9.71861 3.6481C9.81998 3.64544 9.92086 3.66311 10.0153 3.70007C10.1097 3.73703 10.1958 3.79252 10.2684 3.86328C10.3411 3.93404 10.3988 4.01863 10.4382 4.11207C10.4777 4.2055 10.498 4.30588 10.498 4.40729C10.498 4.50869 10.4777 4.60907 10.4382 4.70251C10.3988 4.79594 10.3411 4.88053 10.2684 4.95129C10.1958 5.02205 10.1097 5.07754 10.0153 5.1145C9.92086 5.15146 9.81998 5.16913 9.71861 5.16647ZM9.71861 3.07767C9.61893 3.07777 9.52021 3.05821 9.4281 3.0201C9.33599 2.982 9.2523 2.9261 9.18183 2.8556C9.11136 2.7851 9.05549 2.7014 9.01741 2.60928C8.97934 2.51715 8.95981 2.41843 8.95995 2.31875C8.95974 2.21904 8.97922 2.12026 9.01727 2.0281C9.05531 1.93593 9.11118 1.85218 9.18166 1.78165C9.25214 1.71112 9.33586 1.65519 9.428 1.61708C9.52014 1.57897 9.6189 1.55942 9.71861 1.55956C9.91998 1.55956 10.1131 1.63954 10.2555 1.78191C10.3979 1.92427 10.478 2.11737 10.4781 2.31875C10.4778 2.52005 10.3977 2.71305 10.2554 2.85534C10.113 2.99764 9.91991 3.0776 9.71861 3.07767ZM11.6093 4.19895C11.5096 4.19906 11.4108 4.17949 11.3187 4.14136C11.2266 4.10324 11.1429 4.04732 11.0724 3.97679C11.0019 3.90627 10.946 3.82253 10.908 3.73038C10.8699 3.63823 10.8504 3.53947 10.8506 3.43977C10.8504 3.34007 10.8699 3.24131 10.908 3.14916C10.946 3.05701 11.0019 2.97327 11.0724 2.90275C11.1429 2.83222 11.2266 2.7763 11.3187 2.73818C11.4108 2.70005 11.5096 2.68048 11.6093 2.68059C11.8106 2.68066 12.0037 2.76065 12.1461 2.90301C12.2885 3.04536 12.3686 3.23842 12.3687 3.43977C12.3686 3.64112 12.2885 3.83418 12.1461 3.97653C12.0037 4.11889 11.8106 4.19888 11.6093 4.19895Z" fill="#FFFF84"/>
<path d="M12.7483 1.63997C10.8992 -1.39807 8.11357 0.715532 8.11357 0.715532C7.93291 0.85207 7.59979 0.964329 7.37344 0.964851L6.62731 0.965373C6.40096 0.965634 6.06784 0.853375 5.88744 0.716837C5.88744 0.716837 3.10159 -1.39729 1.25219 1.64075C-0.596686 4.67775 0.1484 7.98521 0.1484 7.98521C0.278934 8.79504 0.709173 9.33545 1.52109 9.26758C2.33066 9.19996 4.08791 7.08662 4.08791 7.08662C4.23306 6.91249 4.5372 6.77021 4.76303 6.77021L9.23616 6.76942C9.46224 6.76942 9.76612 6.9117 9.91102 7.08584C9.91102 7.08584 11.6685 9.19918 12.4794 9.26679C13.2903 9.33467 13.7216 8.79374 13.8513 7.98443C13.851 7.98443 14.5974 4.67749 12.7483 1.63997ZM5.3191 4.1128H4.35994V5.03724C4.35994 5.03724 4.15683 5.19232 3.8425 5.1884C3.5287 5.1837 3.38668 5.01923 3.38668 5.01923V4.11306H2.48078C2.48078 4.11306 2.36773 3.99715 2.33745 3.69196C2.30769 3.38677 2.4625 3.14006 2.4625 3.14006H3.42192V2.1809C3.42192 2.1809 3.61929 2.07517 3.90307 2.08326C4.07321 2.08841 4.24056 2.12775 4.39518 2.19892L4.39127 3.1398H5.29717C5.29717 3.1398 5.45538 3.34291 5.46843 3.58832C5.48148 3.83398 5.3191 4.1128 5.3191 4.1128ZM9.71861 5.16647C9.61892 5.16654 9.52019 5.14694 9.42808 5.10881C9.33597 5.07068 9.25228 5.01475 9.18182 4.94423C9.11135 4.87371 9.05548 4.78999 9.01741 4.69785C8.97933 4.60572 8.95981 4.50698 8.95995 4.40729C8.95974 4.30757 8.97922 4.2088 9.01727 4.11663C9.05531 4.02447 9.11118 3.94072 9.18166 3.87019C9.25214 3.79965 9.33586 3.74373 9.428 3.70562C9.52014 3.66751 9.6189 3.64796 9.71861 3.6481C9.81998 3.64544 9.92086 3.66311 10.0153 3.70007C10.1097 3.73703 10.1958 3.79252 10.2684 3.86328C10.3411 3.93404 10.3988 4.01863 10.4382 4.11207C10.4777 4.2055 10.498 4.30588 10.498 4.40729C10.498 4.50869 10.4777 4.60907 10.4382 4.70251C10.3988 4.79594 10.3411 4.88053 10.2684 4.95129C10.1958 5.02205 10.1097 5.07754 10.0153 5.1145C9.92086 5.15146 9.81998 5.16913 9.71861 5.16647ZM9.71861 3.07767C9.61893 3.07777 9.52021 3.05821 9.4281 3.0201C9.33599 2.982 9.2523 2.9261 9.18183 2.8556C9.11136 2.7851 9.05549 2.7014 9.01741 2.60928C8.97934 2.51715 8.95981 2.41843 8.95995 2.31875C8.95974 2.21904 8.97922 2.12026 9.01727 2.0281C9.05531 1.93593 9.11118 1.85218 9.18166 1.78165C9.25214 1.71112 9.33586 1.65519 9.428 1.61708C9.52014 1.57897 9.6189 1.55942 9.71861 1.55956C9.91998 1.55956 10.1131 1.63954 10.2555 1.78191C10.3979 1.92427 10.478 2.11737 10.4781 2.31875C10.4778 2.52005 10.3977 2.71305 10.2554 2.85534C10.113 2.99764 9.91991 3.0776 9.71861 3.07767ZM11.6093 4.19895C11.5096 4.19906 11.4108 4.17949 11.3187 4.14136C11.2266 4.10324 11.1429 4.04732 11.0724 3.97679C11.0019 3.90627 10.946 3.82253 10.908 3.73038C10.8699 3.63823 10.8504 3.53947 10.8506 3.43977C10.8504 3.34007 10.8699 3.24131 10.908 3.14916C10.946 3.05701 11.0019 2.97327 11.0724 2.90275C11.1429 2.83222 11.2266 2.7763 11.3187 2.73818C11.4108 2.70005 11.5096 2.68048 11.6093 2.68059C11.8106 2.68066 12.0037 2.76065 12.1461 2.90301C12.2885 3.04536 12.3686 3.23842 12.3687 3.43977C12.3686 3.64112 12.2885 3.83418 12.1461 3.97653C12.0037 4.11889 11.8106 4.19888 11.6093 4.19895Z" fill="url(#paint0_linear_659_364)"/>
<defs>
<linearGradient id="paint0_linear_659_364" x1="6.79105" y1="16.7803" x2="7.37359" y2="0.351105" gradientUnits="userSpaceOnUse">
<stop stop-color="#F2C36B" stop-opacity="0"/>
<stop offset="1" stop-color="#DD8F1F"/>
</linearGradient>
</defs>
</svg>
