<svg width="29" height="34" viewBox="0 0 29 34" fill="none" xmlns="http://www.w3.org/2000/svg">
<path d="M13.9686 16.3778C16.2185 16.3778 18.1669 15.5708 19.7588 13.9786C21.3508 12.3867 22.1577 10.4389 22.1577 8.18869C22.1577 5.93913 21.3508 3.99112 19.7586 2.39864C18.1664 0.806963 16.2183 0 13.9686 0C11.7183 0 9.77042 0.806963 8.17854 2.39891C6.58666 3.99085 5.77936 5.93893 5.77936 8.18869C5.77936 10.4389 6.58659 12.387 8.1788 13.9789C9.77101 15.5706 11.7191 16.3778 13.9686 16.3778ZM28.2974 26.1441C28.2515 25.4817 28.1586 24.7589 28.0219 23.9959C27.8839 23.2269 27.7063 22.5001 27.4935 21.8358C27.2738 21.1492 26.975 20.4712 26.6057 19.8213C26.2222 19.1469 25.7719 18.5596 25.2666 18.0764C24.7382 17.5708 24.0913 17.1644 23.3432 16.8678C22.5977 16.5729 21.7715 16.4235 20.8877 16.4235C20.5406 16.4235 20.205 16.5659 19.5568 16.988C19.096 17.288 18.6338 17.586 18.1703 17.8818C17.7249 18.1656 17.1215 18.4315 16.3763 18.6722C15.6492 18.9075 14.911 19.0268 14.1823 19.0268C13.4537 19.0268 12.7156 18.9075 11.9878 18.6722C11.2434 18.4317 10.64 18.1659 10.1951 17.8821C9.67911 17.5524 9.21228 17.2515 8.80733 16.9877C8.15988 16.5656 7.82393 16.4232 7.47689 16.4232C6.59284 16.4232 5.76695 16.5729 5.02168 16.8681C4.27408 17.1641 3.62689 17.5706 3.09797 18.0766C2.59295 18.5601 2.14239 19.1471 1.75949 19.8213C1.39041 20.4711 1.09158 21.1489 0.871582 21.8361C0.659083 22.5004 0.481448 23.2269 0.343457 23.9959C0.206727 24.7579 0.113892 25.4809 0.0679393 26.1449C0.022227 26.8132 -0.00043085 27.4828 6.20322e-06 28.1527C6.20322e-06 29.9275 0.564189 31.3642 1.67675 32.4239C2.77557 33.4696 4.22945 34 5.99751 34H22.3687C24.1367 34 25.5901 33.4698 26.6891 32.4239C27.802 31.365 28.3662 29.928 28.3662 28.1524C28.3659 27.4673 28.3428 26.7916 28.2974 26.1441Z" fill="url(#paint0_linear_917_2924)"/>
<defs>
<linearGradient id="paint0_linear_917_2924" x1="14.1831" y1="0" x2="14.1831" y2="34" gradientUnits="userSpaceOnUse">
<stop stop-color="#FFC400"/>
<stop offset="1" stop-color="#EF5261" stop-opacity="0.8"/>
</linearGradient>
</defs>
</svg>
