<svg width="14" height="14" viewBox="0 0 14 14" fill="none" xmlns="http://www.w3.org/2000/svg">
<path d="M14 2.8V3.73333H4.86399e-08V2.8C-0.000109737 2.2621 0.185632 1.74067 0.525791 1.32398C0.865949 0.907285 1.33963 0.620914 1.86667 0.513333V0.933333C1.86667 1.19 2.07667 1.4 2.33333 1.4C2.59 1.4 2.8 1.19 2.8 0.933333V0.466667H4.2V0.933333C4.2 1.19 4.41 1.4 4.66667 1.4C4.92333 1.4 5.13333 1.19 5.13333 0.933333V0.466667H6.53333V0.933333C6.53333 1.19 6.74333 1.4 7 1.4C7.25667 1.4 7.46667 1.19 7.46667 0.933333V0.466667H8.86667V0.933333C8.86667 1.19 9.07667 1.4 9.33333 1.4C9.59 1.4 9.8 1.19 9.8 0.933333V0.466667H11.2V0.933333C11.2 1.19 11.41 1.4 11.6667 1.4C11.9233 1.4 12.1333 1.19 12.1333 0.933333V0.513333C12.6604 0.620914 13.1341 0.907285 13.4742 1.32398C13.8144 1.74067 14.0001 2.2621 14 2.8ZM7 0C6.74333 0 6.53333 0.21 6.53333 0.466667H7.46667C7.46667 0.21 7.25667 0 7 0ZM2.33333 0C2.07667 0 1.86667 0.21 1.86667 0.466667V0.513333C2.016 0.480667 2.17467 0.466667 2.33333 0.466667H2.8C2.8 0.21 2.59 0 2.33333 0ZM4.66667 0C4.41 0 4.2 0.21 4.2 0.466667H5.13333C5.13333 0.21 4.92333 0 4.66667 0ZM9.33333 0C9.07667 0 8.86667 0.21 8.86667 0.466667H9.8C9.8 0.21 9.59 0 9.33333 0ZM11.6667 0C11.41 0 11.2 0.21 11.2 0.466667H11.6667C11.8253 0.466667 11.984 0.480667 12.1333 0.513333V0.466667C12.1333 0.21 11.9233 0 11.6667 0ZM14 10.7333C14 12.5393 12.5393 14 10.7333 14C8.92733 14 7.46667 12.5393 7.46667 10.7333C7.46667 8.92733 8.92733 7.46667 10.7333 7.46667C12.5393 7.46667 14 8.92733 14 10.7333ZM12.1333 10.7333C12.1333 10.4767 11.9233 10.2667 11.6667 10.2667H11.2V9.33333C11.2 9.07667 10.99 8.86667 10.7333 8.86667C10.4767 8.86667 10.2667 9.07667 10.2667 9.33333V10.7333C10.2667 10.99 10.4767 11.2 10.7333 11.2H11.6667C11.9233 11.2 12.1333 10.99 12.1333 10.7333ZM14 4.66667V8.10133C13.608 7.61169 13.1108 7.21652 12.5453 6.9451C11.9799 6.67367 11.3606 6.53294 10.7333 6.53333C8.41867 6.53333 6.53333 8.41867 6.53333 10.7333C6.53294 11.3606 6.67367 11.9799 6.9451 12.5453C7.21652 13.1108 7.61169 13.608 8.10133 14H2.33333C1.04533 14 4.86399e-08 12.9547 4.86399e-08 11.6667V4.66667H14ZM3.26667 11.6667C3.26667 11.41 3.05667 11.2 2.8 11.2C2.54333 11.2 2.33333 11.41 2.33333 11.6667C2.33333 11.9233 2.54333 12.1333 2.8 12.1333C3.05667 12.1333 3.26667 11.9233 3.26667 11.6667ZM3.26667 9.33333C3.26667 9.07667 3.05667 8.86667 2.8 8.86667C2.54333 8.86667 2.33333 9.07667 2.33333 9.33333C2.33333 9.59 2.54333 9.8 2.8 9.8C3.05667 9.8 3.26667 9.59 3.26667 9.33333ZM3.26667 7C3.26667 6.74333 3.05667 6.53333 2.8 6.53333C2.54333 6.53333 2.33333 6.74333 2.33333 7C2.33333 7.25667 2.54333 7.46667 2.8 7.46667C3.05667 7.46667 3.26667 7.25667 3.26667 7ZM6.06667 11.6667C6.06667 11.41 5.85667 11.2 5.6 11.2C5.34333 11.2 5.13333 11.41 5.13333 11.6667C5.13333 11.9233 5.34333 12.1333 5.6 12.1333C5.85667 12.1333 6.06667 11.9233 6.06667 11.6667ZM6.06667 9.33333C6.06667 9.07667 5.85667 8.86667 5.6 8.86667C5.34333 8.86667 5.13333 9.07667 5.13333 9.33333C5.13333 9.59 5.34333 9.8 5.6 9.8C5.85667 9.8 6.06667 9.59 6.06667 9.33333ZM6.06667 7C6.06667 6.74333 5.85667 6.53333 5.6 6.53333C5.34333 6.53333 5.13333 6.74333 5.13333 7C5.13333 7.25667 5.34333 7.46667 5.6 7.46667C5.85667 7.46667 6.06667 7.25667 6.06667 7Z" fill="#FFFF84"/>
<path d="M14 2.8V3.73333H4.86399e-08V2.8C-0.000109737 2.2621 0.185632 1.74067 0.525791 1.32398C0.865949 0.907285 1.33963 0.620914 1.86667 0.513333V0.933333C1.86667 1.19 2.07667 1.4 2.33333 1.4C2.59 1.4 2.8 1.19 2.8 0.933333V0.466667H4.2V0.933333C4.2 1.19 4.41 1.4 4.66667 1.4C4.92333 1.4 5.13333 1.19 5.13333 0.933333V0.466667H6.53333V0.933333C6.53333 1.19 6.74333 1.4 7 1.4C7.25667 1.4 7.46667 1.19 7.46667 0.933333V0.466667H8.86667V0.933333C8.86667 1.19 9.07667 1.4 9.33333 1.4C9.59 1.4 9.8 1.19 9.8 0.933333V0.466667H11.2V0.933333C11.2 1.19 11.41 1.4 11.6667 1.4C11.9233 1.4 12.1333 1.19 12.1333 0.933333V0.513333C12.6604 0.620914 13.1341 0.907285 13.4742 1.32398C13.8144 1.74067 14.0001 2.2621 14 2.8ZM7 0C6.74333 0 6.53333 0.21 6.53333 0.466667H7.46667C7.46667 0.21 7.25667 0 7 0ZM2.33333 0C2.07667 0 1.86667 0.21 1.86667 0.466667V0.513333C2.016 0.480667 2.17467 0.466667 2.33333 0.466667H2.8C2.8 0.21 2.59 0 2.33333 0ZM4.66667 0C4.41 0 4.2 0.21 4.2 0.466667H5.13333C5.13333 0.21 4.92333 0 4.66667 0ZM9.33333 0C9.07667 0 8.86667 0.21 8.86667 0.466667H9.8C9.8 0.21 9.59 0 9.33333 0ZM11.6667 0C11.41 0 11.2 0.21 11.2 0.466667H11.6667C11.8253 0.466667 11.984 0.480667 12.1333 0.513333V0.466667C12.1333 0.21 11.9233 0 11.6667 0ZM14 10.7333C14 12.5393 12.5393 14 10.7333 14C8.92733 14 7.46667 12.5393 7.46667 10.7333C7.46667 8.92733 8.92733 7.46667 10.7333 7.46667C12.5393 7.46667 14 8.92733 14 10.7333ZM12.1333 10.7333C12.1333 10.4767 11.9233 10.2667 11.6667 10.2667H11.2V9.33333C11.2 9.07667 10.99 8.86667 10.7333 8.86667C10.4767 8.86667 10.2667 9.07667 10.2667 9.33333V10.7333C10.2667 10.99 10.4767 11.2 10.7333 11.2H11.6667C11.9233 11.2 12.1333 10.99 12.1333 10.7333ZM14 4.66667V8.10133C13.608 7.61169 13.1108 7.21652 12.5453 6.9451C11.9799 6.67367 11.3606 6.53294 10.7333 6.53333C8.41867 6.53333 6.53333 8.41867 6.53333 10.7333C6.53294 11.3606 6.67367 11.9799 6.9451 12.5453C7.21652 13.1108 7.61169 13.608 8.10133 14H2.33333C1.04533 14 4.86399e-08 12.9547 4.86399e-08 11.6667V4.66667H14ZM3.26667 11.6667C3.26667 11.41 3.05667 11.2 2.8 11.2C2.54333 11.2 2.33333 11.41 2.33333 11.6667C2.33333 11.9233 2.54333 12.1333 2.8 12.1333C3.05667 12.1333 3.26667 11.9233 3.26667 11.6667ZM3.26667 9.33333C3.26667 9.07667 3.05667 8.86667 2.8 8.86667C2.54333 8.86667 2.33333 9.07667 2.33333 9.33333C2.33333 9.59 2.54333 9.8 2.8 9.8C3.05667 9.8 3.26667 9.59 3.26667 9.33333ZM3.26667 7C3.26667 6.74333 3.05667 6.53333 2.8 6.53333C2.54333 6.53333 2.33333 6.74333 2.33333 7C2.33333 7.25667 2.54333 7.46667 2.8 7.46667C3.05667 7.46667 3.26667 7.25667 3.26667 7ZM6.06667 11.6667C6.06667 11.41 5.85667 11.2 5.6 11.2C5.34333 11.2 5.13333 11.41 5.13333 11.6667C5.13333 11.9233 5.34333 12.1333 5.6 12.1333C5.85667 12.1333 6.06667 11.9233 6.06667 11.6667ZM6.06667 9.33333C6.06667 9.07667 5.85667 8.86667 5.6 8.86667C5.34333 8.86667 5.13333 9.07667 5.13333 9.33333C5.13333 9.59 5.34333 9.8 5.6 9.8C5.85667 9.8 6.06667 9.59 6.06667 9.33333ZM6.06667 7C6.06667 6.74333 5.85667 6.53333 5.6 6.53333C5.34333 6.53333 5.13333 6.74333 5.13333 7C5.13333 7.25667 5.34333 7.46667 5.6 7.46667C5.85667 7.46667 6.06667 7.25667 6.06667 7Z" fill="url(#paint0_linear_659_369)"/>
<defs>
<linearGradient id="paint0_linear_659_369" x1="6.79105" y1="25.3333" x2="8.11666" y2="0.569844" gradientUnits="userSpaceOnUse">
<stop stop-color="#F2C36B" stop-opacity="0"/>
<stop offset="1" stop-color="#DD8F1F"/>
</linearGradient>
</defs>
</svg>
