<svg width="12" height="14" viewBox="0 0 12 14" fill="none" xmlns="http://www.w3.org/2000/svg">
<path d="M5.83365 0C3.58198 0 1.75031 1.83167 1.75031 4.08333C1.75031 6.335 3.58198 8.16667 5.83365 8.16667C8.08531 8.16667 9.91698 6.335 9.91698 4.08333C9.91698 1.83167 8.08531 0 5.83365 0ZM8.04273 3.94158L7.24881 4.75533L7.43723 5.90917C7.4503 5.99015 7.44033 6.07318 7.40847 6.14877C7.37661 6.22436 7.32414 6.28947 7.25705 6.33667C7.18996 6.38387 7.11095 6.41126 7.02904 6.41571C6.94713 6.42016 6.86562 6.40149 6.79381 6.36183L5.83365 5.83158L4.87348 6.36242C4.80164 6.40253 4.71993 6.42155 4.63775 6.41727C4.55558 6.413 4.47628 6.3856 4.40899 6.33824C4.3417 6.29088 4.28915 6.22549 4.2574 6.14958C4.22564 6.07367 4.21596 5.99033 4.22948 5.90917L4.4179 4.75533L3.62456 3.94158C3.56842 3.88399 3.52923 3.81204 3.51131 3.73363C3.4934 3.65522 3.49744 3.57339 3.523 3.49713C3.54856 3.42087 3.59465 3.35313 3.6562 3.30136C3.71775 3.24959 3.79238 3.21579 3.8719 3.20367L4.95165 3.03858L5.43815 2.002C5.58165 1.69458 6.08623 1.69458 6.22973 2.002L6.71623 3.03858L7.79598 3.20367C7.87568 3.21548 7.95055 3.24914 8.01229 3.3009C8.07403 3.35265 8.12024 3.4205 8.14579 3.49691C8.17134 3.57332 8.17524 3.65531 8.15705 3.7338C8.13886 3.81228 8.09929 3.8842 8.04273 3.94158ZM2.31031 7.57167L0.0528125 11.6258C-0.0230208 11.7658 -0.0171875 11.9408 0.0703125 12.075C0.157813 12.2092 0.309479 12.2908 0.472813 12.2733L2.26948 12.1392L3.06281 13.755C3.13865 13.9008 3.28448 13.9942 3.44198 14H3.45365C3.61115 14 3.76281 13.9125 3.83865 13.7783L5.30865 11.165L3.87948 8.63917C3.29297 8.38696 2.76029 8.02458 2.31031 7.57167ZM11.6086 11.6258L9.33365 7.595C8.57693 8.35208 7.59384 8.84158 6.53365 8.98917C6.30615 9.02417 6.07281 9.04167 5.83365 9.04167C5.57698 9.04167 5.32615 9.02417 5.08115 8.98333L5.81031 10.2725L7.78781 13.7783C7.86365 13.9125 8.00948 14 8.16698 14H8.17865C8.34198 13.9942 8.48781 13.9008 8.56365 13.755L9.36281 12.1392L11.1945 12.2792C11.3578 12.2908 11.5095 12.215 11.597 12.075C11.6845 11.9408 11.6903 11.7658 11.6086 11.6258Z" fill="#FFFF84"/>
<path d="M5.83365 0C3.58198 0 1.75031 1.83167 1.75031 4.08333C1.75031 6.335 3.58198 8.16667 5.83365 8.16667C8.08531 8.16667 9.91698 6.335 9.91698 4.08333C9.91698 1.83167 8.08531 0 5.83365 0ZM8.04273 3.94158L7.24881 4.75533L7.43723 5.90917C7.4503 5.99015 7.44033 6.07318 7.40847 6.14877C7.37661 6.22436 7.32414 6.28947 7.25705 6.33667C7.18996 6.38387 7.11095 6.41126 7.02904 6.41571C6.94713 6.42016 6.86562 6.40149 6.79381 6.36183L5.83365 5.83158L4.87348 6.36242C4.80164 6.40253 4.71993 6.42155 4.63775 6.41727C4.55558 6.413 4.47628 6.3856 4.40899 6.33824C4.3417 6.29088 4.28915 6.22549 4.2574 6.14958C4.22564 6.07367 4.21596 5.99033 4.22948 5.90917L4.4179 4.75533L3.62456 3.94158C3.56842 3.88399 3.52923 3.81204 3.51131 3.73363C3.4934 3.65522 3.49744 3.57339 3.523 3.49713C3.54856 3.42087 3.59465 3.35313 3.6562 3.30136C3.71775 3.24959 3.79238 3.21579 3.8719 3.20367L4.95165 3.03858L5.43815 2.002C5.58165 1.69458 6.08623 1.69458 6.22973 2.002L6.71623 3.03858L7.79598 3.20367C7.87568 3.21548 7.95055 3.24914 8.01229 3.3009C8.07403 3.35265 8.12024 3.4205 8.14579 3.49691C8.17134 3.57332 8.17524 3.65531 8.15705 3.7338C8.13886 3.81228 8.09929 3.8842 8.04273 3.94158ZM2.31031 7.57167L0.0528125 11.6258C-0.0230208 11.7658 -0.0171875 11.9408 0.0703125 12.075C0.157813 12.2092 0.309479 12.2908 0.472813 12.2733L2.26948 12.1392L3.06281 13.755C3.13865 13.9008 3.28448 13.9942 3.44198 14H3.45365C3.61115 14 3.76281 13.9125 3.83865 13.7783L5.30865 11.165L3.87948 8.63917C3.29297 8.38696 2.76029 8.02458 2.31031 7.57167ZM11.6086 11.6258L9.33365 7.595C8.57693 8.35208 7.59384 8.84158 6.53365 8.98917C6.30615 9.02417 6.07281 9.04167 5.83365 9.04167C5.57698 9.04167 5.32615 9.02417 5.08115 8.98333L5.81031 10.2725L7.78781 13.7783C7.86365 13.9125 8.00948 14 8.16698 14H8.17865C8.34198 13.9942 8.48781 13.9008 8.56365 13.755L9.36281 12.1392L11.1945 12.2792C11.3578 12.2908 11.5095 12.215 11.597 12.075C11.6845 11.9408 11.6903 11.7658 11.6086 11.6258Z" fill="url(#paint0_linear_659_374)"/>
<defs>
<linearGradient id="paint0_linear_659_374" x1="5.65908" y1="25.3333" x2="7.24786" y2="0.600943" gradientUnits="userSpaceOnUse">
<stop stop-color="#F2C36B" stop-opacity="0"/>
<stop offset="1" stop-color="#DD8F1F"/>
</linearGradient>
</defs>
</svg>
